<svg xmlns="http://www.w3.org/2000/svg" id="Layer_1" data-name="Layer 1" viewBox="0 0 923 297"><defs><style>.cls-1{fill:#137cc1;}.cls-2{fill:#33373a;}.cls-3{fill:#bbbdbf;}</style></defs><g id="BUCC_Logo" data-name="BUCC Logo"><path d="M32.67,22.49c10.1-1,21.15-2.9,30.54,2,6,2.92,8.87,10.23,7.07,16.53-1.08,4.69-5.21,7.62-8.82,10.34,4,2.24,8.3,4.74,10.17,9.16,3.89,8.24.1,19.12-8.36,22.78-9.64,4.18-20.52,2.92-30.71,2.32C32.57,64.61,32.34,43.55,32.67,22.49Zm8.5,6c-.2,6.83-.16,13.64,0,20.47,5.59-.17,11.74.5,16.68-2.66,5.28-3.26,5.85-12.19.6-15.73C53.28,27.31,46.92,27.9,41.17,28.45Zm0,26.75c-.12,8-.16,16.12,0,24.18,6.28.3,13.4.94,18.74-3.08,6-4.29,5.5-14.86-1.07-18.38C53.49,54.77,47.07,55.22,41.13,55.2Z"></path><path d="M84.17,22.42c10-1,20.77-2.61,30.3,1.54,8,3.6,10.94,14.15,7.43,21.88-1.67,4.19-5.53,6.79-9.07,9.28,3.08,2.85,6,6.11,7.1,10.29,1.81,6.72,3.23,13.55,5.36,20.19q-4.49,0-9-.1c-2.6-7.4-3-15.56-6.7-22.52-3.67-5.82-11.36-4.82-17.26-5,0,9.2.11,18.39-.07,27.58l-8.32,0C83.89,64.56,83.5,43.46,84.17,22.42Zm8.18,6.22c0,7.64.05,15.27,0,22.91,6.12.24,13.11,1.05,18.23-3,5.68-4.16,5.63-14-.24-17.89C105,27.23,98.33,27.87,92.35,28.64Z"></path><path d="M199.09,28c8.73-7.11,20.87-8.49,31.62-6.23,1.83.52,3.95.76,5.39,2.14a32.65,32.65,0,0,1-1.91,6.51c-9-3.16-19.95-3.82-28,2.11-8.56,6.1-10.78,17.86-9,27.67,1.12,7.16,5.51,14,12.3,17,8,3.79,17.27,2.48,25.44-.19.3,2.43.62,4.88.86,7.32-11.59,3.17-25.13,4.11-35.54-2.92-8.62-5.61-12.65-16.19-12.56-26.17C187.27,45.08,191,34.43,199.09,28Z"></path><path d="M151.76,22.12c3.4.21,7.58-1.22,10.51.7,2.53,5.83,4,12,6.26,18,4.9,15,10.42,29.74,15.16,44.77q-4.56,0-9.12,0c-2.22-6.64-4.41-13.3-6.74-19.9-7.4,0-14.78,0-22.16.08-2.18,6.65-4.29,13.33-6.69,19.91l-8.74-.09C137.29,64.37,144.64,43.28,151.76,22.12ZM156.34,31c-2.28,9.52-5.86,18.64-8.69,28,6.1.08,12.19.1,18.29,0-1.82-6.19-4.13-12.22-6.06-18.38C158.8,37.31,158.26,33.86,156.34,31Z"></path><path d="M265.87,22.1q4.38-.15,8.81-.12c.24,13.21,0,26.43.1,39.64.05,5.78,1.69,12.13,6.54,15.73,6,4.21,15.39,2.93,19.67-3.14,2.86-4,3.5-9.07,3.53-13.86,0-12.79-.15-25.58.08-38.37,2.94,0,5.88,0,8.82.14-.17,12.74.13,25.49-.16,38.23-.17,7.5-2,15.58-7.72,20.85-7.93,6.8-20.24,7.4-29.25,2.49C268,78.62,265.93,68.12,265.93,59.1,265.83,46.78,266,34.44,265.87,22.1Z"></path><path d="M380.18,22.77a6.49,6.49,0,0,1,6.45-.24c2.62,1.71,2.5,5.5,1.36,8.06-2.59,2.56-7.9,2.57-9.33-1.22C378,27.26,378,23.93,380.18,22.77Z"></path><path d="M562.53,22.61c2.3-1.51,5.16-.72,7.32.63,1.09,2.13,1.5,4.92.16,7-2.22,3.43-9.06,2.69-9.52-1.73C560,26.41,560.4,23.71,562.53,22.61Z"></path><path d="M585.29,28.9c2.74-.78,5.49-1.5,8.27-2.15.06,4.32.07,8.64.17,13,3.93,0,7.85,0,11.79.07,0,2.2,0,4.37,0,6.57-4,0-7.94,0-11.91,0,0,8-.1,16.11,0,24.16.17,2.94.11,6.64,3,8.36,2.62.9,5.45.57,8.17.68.1,2.06.22,4.13.34,6.19-5.25.92-11.76,2.15-16-1.9-3.47-3-3.73-7.93-3.72-12.19.07-8.35-.07-16.71.18-25.07q-3.72-.21-7.42-.36,0-3.21,0-6.41c2.31-.06,4.6-.11,6.92-.14A94.56,94.56,0,0,0,585.29,28.9Z"></path><path d="M701.78,30.26a4.47,4.47,0,0,1,6,3.53c.78,6.44-.46,13,.57,19.41,5.44,4.66,12.51,6.94,18.58,10.7a13.53,13.53,0,0,0,14.83.11c6.13-3.63,13.08-6,18.65-10.51,1.5-6.76-.19-13.79.93-20.59a4.66,4.66,0,0,1,6.16-2.28c3.42,1.8,2.18,6.23,2.51,9.37-.31,5.61.81,11.54-1.31,16.9-2.48,6-9.14,7.85-14.29,10.76-6.51,3.08-12.71,7.87-20.21,7.79-7.12.1-12.86-4.68-19-7.55-6-3.33-14-5.73-15.91-13.13-1-5.73-.36-11.58-.51-17.37C698.79,34.82,698.67,31.15,701.78,30.26Z"></path><path d="M335,45.55C339.67,41,346,37.49,352.79,39c7.78,1,13,8.67,13.09,16.17.24,10.16.1,20.33,0,30.5-2.89,0-5.77-.11-8.66-.21.07-10.07.5-20.18-.15-30.24-.31-5.76-5.92-10.36-11.64-9.07-5.64.66-9.86,6.11-9.83,11.64-.19,9.3.12,18.58-.12,27.88-2.9,0-5.77-.11-8.66-.21.21-15.23.34-30.45-.24-45.67q3.63,0,7.28,0C334.23,41.7,334.59,43.62,335,45.55Z"></path><path d="M445.88,49.27c5.29-10.6,20.69-14,30-6.74,6.22,5.2,7.6,13.86,7.28,21.54-10.85.79-21.74.06-32.61.43.47,5,2.11,10.38,6.71,13.07,6.78,4.13,15,1.9,22.21.47.22,2.07.46,4.16.67,6.25-9.1,2.74-19.91,4.14-28.35-1.17C440.94,75.9,440.29,60,445.88,49.27Zm10-1.39c-3,2.49-4.16,6.38-4.87,10.08,8,.18,15.95.23,23.92,0-.56-3.06-.74-6.51-2.94-8.94C468.21,44.09,460.28,43.75,455.85,47.88Z"></path><path d="M500.37,47.52c3.42-5.34,8.88-9.8,15.63-8.76,0,2.73,0,5.48.06,8.23-3.27.12-6.95-.14-9.59,2.17-3.87,3.33-4.94,8.71-5,13.58-.07,7.63.13,15.28-.07,22.92-2.9,0-5.78-.11-8.67-.21.17-15.19.36-30.4-.1-45.58,2.5-.1,5-.14,7.5-.17C500.25,42.3,500.34,44.91,500.37,47.52Z"></path><path d="M527.84,41.46c6.47-4.08,14.83-3.18,21.51-.08-.57,2-1.14,4-1.69,6.07-4.49-1-9.33-3.27-13.88-1.35-3.77,1.42-4.81,7.25-1.3,9.55,4.58,3.22,10.55,4.1,14.7,8,6.12,5.59,4.6,17.11-3,20.7-7,3.48-15.76,2.87-22.78-.33-1-2.27.86-4.66,1.26-6.94,5.1,2.14,11.08,4.65,16.47,2.08,3.75-1.84,4.74-7.44,1.48-10.24-4.56-3.8-11.17-4.25-15.31-8.71C519.94,55.06,521.49,45.14,527.84,41.46Z"></path><path d="M379.33,39.67c2.88,0,5.75.13,8.63.34-.18,15.14-.22,30.29,0,45.42-2.89.12-5.77.18-8.66.23Q379.13,62.67,379.33,39.67Z"></path><path d="M395.8,39.8c3-.08,6-.1,9-.09,4.34,11.87,8,24,12.71,35.7,4.87-11.67,8.38-23.86,12.72-35.73,3,0,5.94,0,8.92.13-5.74,15.36-11.91,30.56-17.87,45.84-2.84,0-5.68-.09-8.5-.18C407.41,70.14,401,55.17,395.8,39.8Z"></path><path d="M561.18,40c2.86-.22,5.74-.3,8.62-.33.17,15.33.14,30.65,0,46-2.9,0-5.79-.11-8.67-.21C561.39,70.3,561.34,55.15,561.18,40Z"></path><path d="M609.56,39.81c3.07-.1,6.16-.1,9.24,0,4.49,11.86,8.67,23.84,13.17,35.71,3-12.09,7.79-23.65,11.45-35.53a82.74,82.74,0,0,1,9.05-.22c-3.12,9.92-7.33,19.46-10.88,29.22-3.85,9.72-7.15,19.89-13.4,28.39-3.44,4.75-8.63,7.77-14.12,9.56q-1-3.63-2-7.26c6.35-3.2,12.7-8.1,14.51-15.34-.65-4.26-2.86-8.1-4.33-12.14C618.09,61.38,613.4,50.75,609.56,39.81Z"></path><path d="M698.9,100.82c-.33-3.7,4.45-6.14,7.28-3.77,2,1.42,1.7,4.1,1.85,6.25,0,5.41-.09,10.81,0,16.22,6.77,4.33,14,8,21.08,11.65,5.8,3,11.89-.46,17-3.28,4.72-2.93,10.55-4.41,14.44-8.46,1.35-6.74-.38-13.73.92-20.47,1.41-3.69,7.79-3.31,8.26.79a115.5,115.5,0,0,1-.21,21.12c-1.67,7.65-9.77,10.08-15.82,13.33-6.27,2.94-12.24,7.52-19.46,7.47s-13.09-4.74-19.33-7.73c-5.92-3.33-13.84-5.85-15.68-13.26C698.39,114.12,698.81,107.43,698.9,100.82Z"></path><path d="M525,120.82c4-.1,7.92-.1,11.88,0q.23,33.83,0,67.64c-4,.09-7.93.09-11.88,0Q524.75,154.63,525,120.82Z"></path><path d="M603.52,120.82c4-.1,7.92-.1,11.88,0,.15,8.93.2,17.86-.08,26.78,4-3.91,9.2-7.07,15-6.64,8.42-.48,16,5.85,18.2,13.77,2.76,9.58,1.89,21.2-5.15,28.8a20.54,20.54,0,0,1-21.19,5.21c-3.21-1.18-5.62-3.7-8.19-5.84-.19,1.81-.36,3.63-.53,5.46-3.38.17-6.76.2-10.13.15C603.55,165.94,603.27,143.37,603.52,120.82Zm19.76,30c-4.59,1.43-7.58,6.12-7.69,10.82-.14,5.14-1.05,11.45,3.18,15.33a10.28,10.28,0,0,0,11.6,2.35c4.14-1.72,6.51-6.13,7.1-10.4.67-5.41.16-11.59-3.88-15.65C631,150.54,626.83,149.93,623.28,150.85Z"></path><path d="M42.56,131.16C53.32,122.05,69.26,121,82.08,126c-.91,3.13-1.78,6.26-2.68,9.39-9.4-3.15-21.23-3.73-28.74,3.83-8.55,9.2-8.68,25.45.06,34.57,7.56,7.42,19.38,6.74,28.73,3.55.73,3.23,1.35,6.46,1.9,9.72-11.43,3.49-24.74,4.13-35.39-2-8.69-4.93-13.63-14.78-14.07-24.56C30.9,149.8,34.22,138.26,42.56,131.16Z"></path><path d="M475.76,132.42c10.64-10.22,27.48-11.61,40.85-6.46-.87,3.17-1.75,6.32-2.7,9.45-8.13-2.63-17.63-3.68-25.22,1-7.23,4.34-10.2,13.3-9.7,21.37,0,7.93,4,16.34,11.55,19.6,7.41,3.54,15.87,2.21,23.48.09.72,3.16,1.36,6.34,1.9,9.53a49.35,49.35,0,0,1-29.41.69,28.27,28.27,0,0,1-19-20.24C464.6,155.46,466.59,141.35,475.76,132.42Z"></path><path d="M335.62,131.47c3.9-1,7.8-1.93,11.77-2.69-.11,4.35-.11,8.7,0,13.06,3.54.08,7.1.08,10.64,0a74,74,0,0,1,.18,9.3c-3.6,0-7.21,0-10.79.06,0,8.07-.67,16.2.28,24.22.45,5.09,6.51,4.1,10.12,4.23.1,2.92.2,5.86.34,8.79-5.32,1.25-11.32,2.09-16.36-.55-4.45-2.33-6.15-7.61-6.21-12.33-.22-8.11.14-16.2-.17-24.3q-3.26-.09-6.52-.15,0-4.63.12-9.26c2.12,0,4.25,0,6.4-.09C335.53,138.35,335.58,134.92,335.62,131.47Z"></path><path d="M102.61,141.87c8.22-2.05,17.94-.92,24.16,5.27,8,8.05,8.67,21.46,3.54,31.2-7,13-27,15.29-37.35,5.15C80.69,171.51,85.07,146.26,102.61,141.87Zm3.75,8.51c-8.67,4.24-9.54,16.41-5.79,24.27,2.3,5.75,10.21,8.39,15.11,4.22,6.41-5.79,6.82-16.21,3-23.57A10,10,0,0,0,106.36,150.38Z"></path><path d="M153.18,147.8c4-3.8,9-7.46,14.88-6.85,5.52-.36,9.84,3.52,12.83,7.72,4.22-5.2,10.69-9,17.59-7.52,8.08.82,12.63,9.18,12.86,16.62.25,10.22.11,20.47,0,30.7-3.87.08-7.75.08-11.61,0-.13-9,.1-18-.07-26.94-.12-3.86-1.14-8.79-5.25-10.26-5.21-2-10.92,2.54-11.24,7.82-.64,9.73-.11,19.5-.23,29.26a67.46,67.46,0,0,1-11.89-.18c.2-8,.08-16,.17-24-.08-3.7.11-7.89-2.39-10.92-2.16-2.67-6.25-3.06-9.14-1.41-3.46,1.9-5.14,5.92-5.21,9.72-.22,9,.14,18-.14,26.92-3.87.09-7.75.09-11.61,0-.11-15.45.11-30.92-.14-46.38,3.39-.09,6.8-.08,10.21.06C152.92,144,153.05,145.91,153.18,147.8Z"></path><path d="M234.18,148.75c6.71-9.36,22-10.71,29.67-1.9,8.2,9.64,8.25,25.27.79,35.34-6.84,9-21,10-29.26,2.32.2,7.65.19,15.3,0,23q-6,.12-11.88,0c-.28-21.79.1-43.59-.21-65.37,3.51-.09,7-.09,10.57,0C234,144.34,234.1,146.55,234.18,148.75Zm9.2,2.19c-8,2.62-8.61,12.45-7.67,19.5.26,7.37,9.19,12.48,15.64,8.66,6.87-4.42,7.55-14,5.21-21.13C254.81,152.65,248.86,149,243.38,150.94Z"></path><path d="M367.08,151.58c5.83-10.91,22-14.17,31.67-6.65,6.95,5.7,8.41,15.52,7.41,24-10.39,0-20.76-.19-31.14.1.36,4.39,2.88,8.57,7.12,10.17,6.49,2.39,13.61,1,20.12-.66.5,2.76,1,5.52,1.54,8.3-10.78,3.66-24.52,5-33.63-3.16C361.74,175.49,361.57,161.43,367.08,151.58Zm12.36-.17c-2.67,2.22-3.57,5.7-4.78,8.79,6.86.23,13.74.19,20.6.05-.59-2.68-.87-5.63-2.69-7.84C389.49,148.52,383.12,148.18,379.44,151.41Z"></path><path d="M415.35,141.78c3.38.42,7.26-.72,10.31.92a73.46,73.46,0,0,1,0,7.42c2.3-3,4.43-6.35,7.94-8,2.57-1.29,5.52-1.06,8.31-1.21.11,3.77.1,7.54-.13,11.32-3.06.11-6.43-.28-9.12,1.53-3.51,2.09-5,6.34-4.93,10.25-.11,8.14.08,16.29,0,24.44a89.72,89.72,0,0,1-12.16-.3C415.85,172.72,415.53,157.25,415.35,141.78Z"></path><path d="M279.28,142.13q5.93-.24,11.86,0c.32,9.41-.14,18.85.2,28.26.16,3.75,1.94,8.23,6,9.17,5.92,1.83,12-3.74,11.88-9.63.41-9.27-.13-18.55.25-27.83q5.93-.21,11.88,0c.06,15.47-.14,30.93.11,46.39-3.51,0-7,0-10.51-.07-.09-2.11-.15-4.23-.17-6.34-5,6.37-13.85,9.64-21.64,6.61-6.86-2.44-9.81-10.16-9.88-16.92C279.12,161.9,279.12,152,279.28,142.13Z"></path><path d="M549.3,142.11q5.93-.21,11.88,0c.3,9,0,18,.12,27,0,3.83,1.31,8.13,4.86,10.1,5.82,2.72,13-2.59,12.91-8.81.18-9.42-.19-18.84.14-28.27q5.94-.21,11.88,0c0,15.46-.05,30.92.31,46.36-3.48.07-7,.07-10.45,0-.11-2.12-.22-4.23-.29-6.36-4.6,5.89-12.38,9.23-19.76,7.14-7.28-1.61-11.32-9.17-11.51-16.16C549.12,162.76,549.37,152.44,549.3,142.11Z"></path><path d="M701.66,163.24c18-1,36.13-.2,54.18-.38,7.1-.52,14,5.45,14,12.64.19,6.78.22,13.57,0,20.34-.25,6.53-6.22,12.33-12.78,12.21q-26.58.06-53.17,0c-3.34.51-6.33-3.44-4.52-6.42,1.11-2.77,4.47-2.43,6.93-2.54,16.45,0,32.9.08,49.36,0,2.25.25,4.83-.94,5-3.48a166.82,166.82,0,0,0,.1-20c0-2.6-2.66-4-5-3.76-16.49-.13-33,0-49.49,0-2.09-.2-4.64.19-6.22-1.47C697.93,168.31,698.66,164,701.66,163.24Z"></path><path d="M633,214.93c1.29-2.13,3.89-1.48,5.94-1.33.57,11-5.07,20.76-10.87,29.59-2.1,2.56.08,7.6,3.6,7.08,4.71-.28,7.46-5,8.65-9.06,1.66-7.6,3.6-15.2,6.85-22.29.74-2.14,2.9-3.08,4.63-4.27,3.28,7-.59,14.71-2.71,21.47-5.08,9.6-6.41,20.67-5.93,31.39,5.28-5.66,3.39-15.33,10-19.91A80.51,80.51,0,0,1,645.51,273c-.8,2.68-4.85,4.18-6.11,1.07-2-7.36-1.16-15.2-.69-22.72-2.93,1.8-5.77,4.66-9.5,4-3.54,0-5.32-3.32-6.35-6.22-3.13,2.87-6.8,6.11-11.32,5.83-2.64-.27-3.78-3-5.32-4.75-4.44,3.19-8.39,7.24-13.59,9.18a66.68,66.68,0,0,1-1.43-8.65c1.4-.91,2.83-1.8,4.25-2.7.18-1.9.34-3.78.51-5.67-6.5,3-10,9.79-16.26,13.1a7.34,7.34,0,0,1-6.62,1.33c1.4-4.69,3.18-9.4,2.61-14.39-6.34,1.36-8.62,9.23-15.08,10.59-2.66.46-4-2.26-5.51-3.83-2.61,2.52-4.64,6.36-8.41,7.14-4.63.33-3.85-5.63-4.74-8.72-2.12,2.42-4.07,5.72-7.64,5.9-4.52.35-8.74,5.4-13.17,2.1-1.66-2.2-1.33-5.08-1.43-7.66-4.8,5.13-11.26,8.73-14.73,15-3.49,5.26-6.68,13-14.18,12.72,2.11-8.76,11.21-13.49,14-21.94a48,48,0,0,0,1.5-6c-4.37,2.62-7.45,8.89-13.27,7.7-.18-1.59-.37-3.2-.55-4.79-1.48-.58-2.93-1.16-4.38-1.77,3.6-3.44,6.6-8.55,12-9.11-.36,3.27-1,6.5-1.45,9.74,6.08-2.64,8.67-10.74,15.76-11.14-.42,4.74-2.37,9.12-3.88,13.59,6-5.13,11.67-10.72,17.36-16.21,3.07.86,6.42,1,9.28,2.48,1.54,2.71.63,6,.7,8.93,4.63-3.66,6.58-10.49,12.7-12.1-.73,5.37-2.8,10.53-2.6,16,5.7-1.45,6-10.47,12.29-10,.48,2.48,1,5,1.71,7.38a22,22,0,0,0,8.61-9.92c.79-2.35,3.69-4,6-2.8,2.64,1.79,5,4.8,4.52,8.17-.33,2.59-1,5.1-1.48,7.64,6.19-4.82,11.59-10.52,17.25-15.92,1.43-1.8,3.65-.84,5.55-.66.06,5.38-1.47,10.56-2.66,15.76,2.87-2,6-4.21,6.77-7.86,1.5-5.25,4.63-11.62,11-11.56,3.85,6.54-2.87,11.84-6.45,16.58,4.65,3.91,11.42-.94,11.88-6.18A59.6,59.6,0,0,1,633,214.93Zm-5.18,22.61A31,31,0,0,0,634,224.63C630.35,227.93,629.42,233.07,627.84,237.54ZM524.9,252.09a8.1,8.1,0,0,0,8.13-9.81A10.16,10.16,0,0,0,524.9,252.09Z"></path><path d="M447.3,233.12c3.78-5.93,4-15.06,10.94-18.45,1.65,10.39-6.52,19-6.74,29.22.51,2,1.12,5.4,3.85,5,4.79-2.68,4.33-8.92,7.4-12.91,1.8-2.65,4.94-5.78,8.37-3.85,3.07,6.23-3.62,11.18-6.9,15.69,2.84,2.37,6.33.95,9.49.19,1,4.73-4.43,6.59-8.15,7-2.94.19-4.42-2.8-6.14-4.65-2.17,1.76-4.33,4.49-7.49,3.68-3.38-.36-4.17-4.33-5.66-6.75C442,251.37,439,259.16,431.88,258c-.14-1.73-.25-3.45-.34-5.17-2,.82-4,2-6.19,2.24-2.65-.29-3.6-3.2-5.05-5-3.24,2.69-6.05,6.47-10.29,7.52-2.62.36-2.47-2.93-3.35-4.54-3.33,1.91-6.63,4.7-10.75,3.86,1.32-4.72,3.28-9.45,2.47-14.48-6.32,2.59-10.58,8.65-14.39,14.09,1.65,3.29,3.83,7,2.47,10.78-2.36,6.11-9.26,10.5-15.83,8.53-2.17-6.6,2.11-12.36,6.33-16.93q-2.52-4-5-8c-3.77,1.27-7.25-.51-10.12-2.84-3.79,7-5.18,14.83-8.12,22.13-.61,1.53-2.13,2.39-3.23,3.52-3-8,.38-16.5,1.25-24.61a39.24,39.24,0,0,1-6.61,3.89c-2.79.8-4.38-2-6.08-3.67-2.42,2.5-4.48,5.78-7.84,7.1-4.7.71-4.62-5.08-5.09-8.23q-1.92,1.2-3.87,2.34c-.25-5.13,4.63-8.37,7.19-12.3,1.06-1.33,4.11-4.27,5.13-1.61-1,4.82-3.12,9.52-2.28,14.55,4.28-2.22,5.92-7.07,9.43-10.09,3.66-.62,2.67,4.54,3.94,6.72,2.1.48,3.22-1.52,4.42-2.85,3.47-4.39,5.85-9.48,8.41-14.41.65-1.49,2.14-2.24,3.38-3.15.16,9.4-5.8,17.54-6.37,26.88,2.35-4.46,2.81-10.15,6.7-13.62,4-.62,5.1,4.59,7.2,7,4.54-5.17,7.08-11.92,12.56-16.31,1.31-1.37,3.36-.91,5.06-1.16.63,6.74-6.21,10.18-9.3,15.25-.51,2.65,1,7.59,4.08,7.34,4.81-4.59,9.42-9.56,12.41-15.57,1.91-2.85,6.09-1.82,7.68.89,3.73,3.77,1.12,9.16.44,13.58,6.64-5.1,12.3-11.37,19.06-16.3,1.81-1.55,4.28-1.42,6.51-1.59-2,5.51-7.79,8.25-10.64,13.25,2.9-1.67,5.59-3.81,8.91-4.64.9,2.35-.62,6.6,2.62,7.31C435.21,244.35,440.81,238.24,447.3,233.12ZM438,250.68a23.26,23.26,0,0,0,8.78-11.76A32.41,32.41,0,0,0,438,250.68Zm28-11.46M415.43,248m-42.29,24.42c5.85.65,10.72-6.05,7.52-11.3C376.7,263.7,374.72,268.18,373.14,272.44Z"></path><path d="M711,229.84c8-2.1,17.14-1.08,23.36,4.83,8.57-8,24.4-8.26,31.9,1.34A18,18,0,0,1,770,247.7c0,8.85,0,17.71-.09,26.57q-35.53,0-71.06,0c0-9.28-.15-18.57,0-27.85C698.9,239,704.17,232.27,711,229.84Zm28.26,15.5c-.61,6.65-.17,13.35-.15,20,7.2,0,14.4,0,21.6,0,.07-6.67.52-13.37-.13-20C758.74,235.27,741.23,235.39,739.29,245.34Zm-31.19.07c-.54,6.63-.06,13.31-.24,20,7.21.26,14.42.21,21.62.1.07-6.74.47-13.5-.1-20.22C727.53,235.36,709.78,235.46,708.1,245.41Z"></path><path class="cls-1" d="M778.33,30.88C821,30.2,862.4,56.62,880.39,95.25c10,20.34,12.89,43.79,9.59,66.12a113.54,113.54,0,0,1-28.12,58.36c-1.88-1.9-3.74-3.81-5.51-5.79a104.44,104.44,0,0,0,15.2-118.69A105.72,105.72,0,0,0,814,45c-11.4-4.28-23.57-6-35.68-6.43C778.33,36,778.31,33.43,778.33,30.88Z"></path><path class="cls-1" d="M781.54,202.51a150,150,0,0,1,67.13-32.83c-.39,2.95,1.07,6.67-.73,9.17-23.21,5.1-45.17,16.33-62.09,33.12-2.07,1.83-1.74,4.87-2.76,7.24-1.53.28-3.08.5-4.61.66a109.08,109.08,0,0,1,0-13.77C778.63,204.38,780.49,203.66,781.54,202.51Z"></path><path class="cls-2" d="M778.36,57.47c11-.19,22.11-.09,33.16-.18,3.5-.15,7.29.64,9.71,3.39,2.64,2.47,2.74,6.31,3,9.68.64,12.67-.18,25.35-.52,38a10,10,0,0,1-9.8,9.69c-11.77.24-23.55-.09-35.32.14-.09-.91-.26-2.72-.35-3.63,11.89-.32,23.78.1,35.67-.18,4.49.26,6.72-4.6,6.49-8.46.23-12.69.61-25.41.08-38.1a6.82,6.82,0,0,0-6.76-6.94c-11.81-.28-23.61.12-35.41-.19Z"></path><path class="cls-2" d="M778.67,62.91c11.76.27,23.56-.28,35.32.22,3.14-.14,5,3.09,4.74,5.94.09,11.87,0,23.75,0,35.6.42,4.77-4.45,8.15-8.76,8.29-10.38.3-20.76-.12-31.14.19l.12-1.62c9.14.35,18.31.07,27.47.21,3-.15,6.59.38,8.88-2,3.34-2.76,2.38-7.58,2.62-11.4-.39-10.07.49-20.18-.29-30.22-.12-3.75-4.51-4-7.32-4.09-10.54,0-21.09,0-31.62,0Z"></path><path class="cls-2" d="M778.34,123.74c11,0,22.09,0,33.15,0,4.1,0,8.39-.43,12.27,1.29.09,8.76.28,17.51,0,26.26.26,2.62-2.46,3.88-4.69,3.74-13.57.18-27.13,0-40.7.07,0-1-.05-3-.07-4,13.9-.25,27.81-.1,41.73-.06.09-7.83.09-15.66.08-23.48-13.92,0-27.84.11-41.76,0Z"></path><path class="cls-2" d="M790.13,130.3q10.56.16,21.15,0c.08,1.64.15,3.29.24,4.95a167.77,167.77,0,0,1-21.74,0C789.88,133.6,790,131.94,790.13,130.3Zm1.36,1.33c-.21.63-.6,1.9-.79,2.53,6.52.33,13.07.25,19.62.05,0-.68-.1-2.06-.13-2.75C804,131.61,797.7,131.18,791.49,131.63Z"></path><path class="cls-2" d="M777.82,158.82q22.7-.23,45.41,0c0,3,0,6,0,9-15.18-.11-30.36.23-45.53-.18,0-.78,0-2.36,0-3.15,13.35-.32,26.73.23,40.08-.24l2.55-1.38c-13.93-1.64-28.09.14-42.09-.88C778.16,161.23,777.93,159.62,777.82,158.82Z"></path><path class="cls-2" d="M779.14,233.16a146.19,146.19,0,0,1,69.48-35q.11,4.55-.06,9.08A125.6,125.6,0,0,0,786.09,240c-2.31,1.83-2.14,5-2.75,7.57l-4.94.51C778.71,243.2,777.26,237.7,779.14,233.16Z"></path><path class="cls-3" d="M791.49,131.63c6.21-.45,12.46,0,18.7-.17,0,.69.09,2.07.13,2.75-6.55.2-13.1.28-19.62-.05C790.89,133.53,791.28,132.26,791.49,131.63Z"></path><path class="cls-3" d="M781,256.43A151.72,151.72,0,0,1,848.7,223c0,3.11,0,6.24-.07,9.37A122.91,122.91,0,0,0,786,265.28c-2.33,1.77-2,4.85-2.58,7.41-1.69.2-3.37.42-5,.61,0-4.31-.17-8.6,0-12.91C778,258.54,779.9,257.54,781,256.43Z"></path></g></svg>