<svg version="1.2" xmlns="http://www.w3.org/2000/svg" viewBox="0 0 297 297" width="300" height="300">
	<title>bucc-logo-svg</title>
	<style>
		.s0 { fill: #000000 } 
		.s1 { fill: #137cc1 } 
		.s2 { fill: #33373a } 
		.s3 { fill: #bbbdbf } 
	</style>
	<g id="BUCC_Logo">
		<path id="Layer" class="s0" d="m54.8 26.3q0.9-0.4 1.9-0.3 1 0.1 1.9 0.6 0.9 0.5 1.5 1.3 0.5 0.9 0.7 1.9c0.8 6.4-0.5 13 0.6 19.4 5.4 4.7 12.5 6.9 18.5 10.7q1.7 1.1 3.6 1.7 1.9 0.6 3.8 0.6 2 0 3.9-0.6 1.9-0.5 3.6-1.6c6.1-3.6 13-6 18.6-10.5 1.5-6.8-0.2-13.8 0.9-20.6q0.4-0.8 1.1-1.5 0.7-0.6 1.6-0.9 0.8-0.3 1.7-0.3 1 0 1.8 0.4c3.4 1.8 2.2 6.3 2.5 9.4-0.3 5.6 0.8 11.5-1.3 16.9-2.5 6-9.1 7.9-14.3 10.8-6.5 3-12.7 7.8-20.2 7.8-7.1 0-12.9-4.7-19-7.6-6-3.3-14-5.7-15.9-13.1-1-5.8-0.4-11.6-0.5-17.4 0-2.6-0.1-6.3 3-7.1z"/>
		<path id="Layer" class="s0" d="m51.9 96.8c-0.3-3.7 4.5-6.1 7.3-3.7 2 1.4 1.7 4 1.8 6.2 0 5.4-0.1 10.8 0 16.2 6.8 4.4 14 8 21.1 11.7 5.8 3 11.9-0.5 17-3.3 4.7-2.9 10.6-4.4 14.5-8.5 1.3-6.7-0.4-13.7 0.9-20.4 1.4-3.7 7.8-3.4 8.2 0.8q0.2 2.6 0.3 5.2 0.1 2.7 0.1 5.3 0 2.7-0.2 5.3-0.1 2.6-0.4 5.3c-1.6 7.6-9.8 10-15.8 13.3-6.3 2.9-12.2 7.5-19.5 7.5-7.2-0.1-13.1-4.8-19.3-7.8-5.9-3.3-13.8-5.8-15.7-13.2-0.8-6.6-0.4-13.3-0.3-19.9z"/>
		<path id="Layer" class="s0" d="m54.7 159.2c18-1 36.1-0.2 54.1-0.3 7.1-0.6 14 5.4 14 12.6 0.2 6.8 0.3 13.6 0 20.3-0.2 6.6-6.2 12.4-12.7 12.3q-26.6 0-53.2 0c-3.4 0.5-6.3-3.5-4.5-6.5 1.1-2.7 4.4-2.4 6.9-2.5 16.4 0 32.9 0.1 49.4 0 2.2 0.2 4.8-0.9 5-3.5q0.1-2.5 0.2-5 0.1-2.5 0.1-5 0-2.5 0-5-0.1-2.5-0.2-5c0-2.6-2.7-4-5-3.7-16.5-0.2-33 0-49.5 0-2.1-0.2-4.7 0.1-6.3-1.5-2.1-2.1-1.3-6.4 1.7-7.2z"/>
		<path id="Layer" fill-rule="evenodd" class="s0" d="m64 225.8c8-2.1 17.1-1 23.4 4.9 8.5-8 24.4-8.3 31.9 1.3q0.9 1.3 1.6 2.6 0.8 1.4 1.3 2.9 0.4 1.5 0.6 3.1 0.3 1.5 0.2 3.1c0 8.8 0 17.7-0.1 26.6q-35.5 0-71.1 0c0-9.3-0.1-18.6 0-27.9 0.1-7.4 5.4-14.1 12.2-16.6zm28.3 15.5c-0.7 6.7-0.2 13.4-0.2 20q10.8 0 21.6 0c0.1-6.6 0.5-13.3-0.1-20-1.9-10-19.4-9.9-21.3 0zm-31.2 0.1c-0.5 6.6-0.1 13.3-0.2 20 7.2 0.3 14.4 0.2 21.6 0.1 0-6.7 0.4-13.5-0.1-20.2-1.8-9.9-19.6-9.8-21.3 0.1z"/>
		<path id="Layer" class="s1" d="m131.3 26.9c42.7-0.7 84.1 25.7 102.1 64.3 10 20.4 12.9 43.8 9.6 66.2q-1.3 8.1-3.8 15.9-2.5 7.9-6 15.3-3.6 7.4-8.2 14.2-4.6 6.8-10.1 12.9c-1.9-1.9-3.8-3.8-5.5-5.8 7.1-7.8 13-16.8 17.5-26.4 4.4-9.7 7.4-20 8.7-30.5 1.4-10.6 1.1-21.3-0.8-31.7-1.8-10.5-5.3-20.6-10.2-30.1-3.1-5.7-6.6-11.2-10.7-16.3-4-5.1-8.5-9.9-13.4-14.2-4.9-4.2-10.2-8.1-15.8-11.4-5.7-3.3-11.6-6.1-17.7-8.3-11.4-4.3-23.6-6-35.7-6.4 0-2.6 0-5.2 0-7.7z"/>
		<path id="Layer" class="s1" d="m134.5 198.5q7.2-6.1 15.1-11.3 7.9-5.2 16.4-9.4 8.5-4.1 17.5-7.2 8.9-3 18.2-4.9c-0.4 2.9 1 6.7-0.8 9.2-23.2 5-45.1 16.3-62.1 33.1-2 1.8-1.7 4.8-2.7 7.2q-2.3 0.4-4.6 0.7-0.1-1.7-0.2-3.5 0-1.7 0-3.4 0-1.7 0-3.5 0.1-1.7 0.2-3.4c0.1-1.7 2-2.4 3-3.6z"/>
		<path id="Layer" class="s2" d="m131.4 53.5c11-0.2 22.1-0.1 33.1-0.2 3.5-0.2 7.3 0.6 9.7 3.4 2.7 2.4 2.8 6.3 3 9.7 0.7 12.6-0.1 25.3-0.5 38 0 1.2-0.3 2.5-0.8 3.6-0.5 1.2-1.3 2.3-2.2 3.2-0.9 0.9-1.9 1.6-3.1 2.1-1.2 0.5-2.4 0.7-3.7 0.8-11.8 0.2-23.5-0.1-35.3 0.1-0.1-0.9-0.3-2.7-0.4-3.6 11.9-0.4 23.8 0.1 35.7-0.2 4.5 0.2 6.7-4.6 6.5-8.5 0.2-12.7 0.6-25.4 0.1-38.1q0-1.3-0.5-2.6-0.5-1.3-1.5-2.3-0.9-0.9-2.2-1.5-1.2-0.5-2.6-0.5c-11.8-0.3-23.6 0.1-35.4-0.2z"/>
		<path id="Layer" class="s2" d="m131.7 58.9c11.7 0.3 23.5-0.3 35.3 0.2 3.1-0.1 5 3.1 4.7 6 0.1 11.8 0 23.7 0 35.6 0.4 4.7-4.4 8.1-8.7 8.3-10.4 0.3-20.8-0.2-31.2 0.1l0.2-1.6c9.1 0.4 18.3 0.1 27.4 0.2 3-0.1 6.6 0.4 8.9-2 3.3-2.7 2.4-7.5 2.6-11.4-0.4-10 0.5-20.1-0.3-30.2-0.1-3.7-4.5-4-7.3-4.1q-15.8 0-31.6 0z"/>
		<path id="Layer" class="s2" d="m131.3 119.7c11 0 22.1 0 33.2 0 4.1 0 8.4-0.4 12.3 1.3 0.1 8.8 0.2 17.5 0 26.3 0.2 2.6-2.5 3.9-4.7 3.7-13.6 0.2-27.2 0-40.7 0.1 0-1-0.1-3-0.1-4 13.9-0.2 27.8-0.1 41.7-0.1 0.1-7.8 0.1-15.6 0.1-23.4-13.9 0-27.8 0.1-41.8 0z"/>
		<path id="Layer" fill-rule="evenodd" class="s2" d="m143.1 126.3q10.6 0.2 21.2 0 0.1 2.5 0.2 5-2.7 0.1-5.4 0.2-2.7 0.1-5.4 0.1-2.8 0-5.5-0.1-2.7-0.1-5.4-0.2 0.1-2.5 0.3-5zm1.4 1.3c-0.2 0.7-0.6 1.9-0.8 2.6 6.5 0.3 13.1 0.2 19.6 0 0-0.7-0.1-2-0.1-2.7-6.2 0.1-12.5-0.3-18.7 0.1z"/>
		<path id="Layer" class="s2" d="m130.8 154.8q22.7-0.2 45.4 0 0 4.5 0 9c-15.1-0.1-30.3 0.2-45.5-0.2 0-0.7 0-2.3 0-3.1 13.4-0.3 26.7 0.2 40.1-0.3l2.5-1.3c-13.9-1.7-28.1 0.1-42.1-0.9 0-0.8-0.3-2.4-0.4-3.2z"/>
		<path id="Layer" class="s2" d="m132.1 229.2q7.3-6.7 15.5-12.2 8.1-5.6 16.9-10 8.8-4.5 18.1-7.7 9.4-3.2 19-5.1 0.1 4.5 0 9-8.8 1.8-17.3 4.8-8.4 3-16.3 7.1-8 4.2-15.2 9.4-7.3 5.3-13.7 11.5c-2.3 1.8-2.1 5-2.8 7.6l-4.9 0.5c0.3-4.9-1.1-10.4 0.7-14.9z"/>
		<path id="Layer" class="s3" d="m144.5 127.6c6.2-0.4 12.5 0 18.7-0.1 0 0.6 0.1 2 0.1 2.7-6.5 0.2-13.1 0.3-19.6 0 0.2-0.7 0.6-1.9 0.8-2.6z"/>
		<path id="Layer" class="s3" d="m134 252.4q7.2-6.2 15.2-11.5 8-5.2 16.5-9.5 8.6-4.2 17.6-7.3 9.1-3.1 18.4-5.1c0 3.1 0 6.2-0.1 9.4q-8.8 1.7-17.3 4.7-8.4 2.9-16.4 7.1-8 4.2-15.2 9.5-7.3 5.3-13.7 11.6c-2.3 1.7-2 4.8-2.6 7.4-1.7 0.2-3.4 0.4-5 0.6 0-4.3-0.2-8.6 0-12.9-0.4-1.9 1.5-2.9 2.6-4z"/>
	</g>
</svg>